<svg width="261" height="527" viewBox="0 0 261 527" fill="none" xmlns="http://www.w3.org/2000/svg">
<g clip-path="url(#clip0_2484_642)">
<mask id="mask0_2484_642" style="mask-type:luminance" maskUnits="userSpaceOnUse" x="0" y="0" width="260" height="527">
<path d="M259.329 0H0.0356445V526.129H259.329V0Z" fill="white"/>
</mask>
<g mask="url(#mask0_2484_642)">
<path d="M257.49 134.905H258.409C258.917 134.905 259.329 135.317 259.329 135.825V195.919C259.329 196.427 258.917 196.839 258.409 196.839H257.49V134.905Z" fill="#1C3343"/>
<path d="M1.87461 209.716H0.955123C0.447309 209.716 0.0356445 209.305 0.0356445 208.796L0.0356477 172.617C0.0356477 172.11 0.447313 171.698 0.955123 171.698H1.87461V209.716Z" fill="#1C3343"/>
<path d="M1.87461 159.433H0.955123C0.447309 159.433 0.0356445 159.021 0.0356445 158.514L0.0356477 122.334C0.0356477 121.826 0.447313 121.414 0.955123 121.414H1.87461V159.433Z" fill="#213744"/>
<path d="M1.87461 103.018H0.955122C0.44731 103.018 0.0356445 102.606 0.0356445 102.099L0.0356461 84.3155C0.0356462 83.8073 0.447311 83.3955 0.955122 83.3955H1.87461V103.018Z" fill="#213744"/>
<path d="M1.87451 55.8016C1.87451 40.9641 1.87451 33.5453 3.82462 27.5414C7.76591 15.407 17.2761 5.89349 29.4061 1.9508C35.408 0 42.8241 0 57.6563 0H201.708C216.541 0 223.956 0 229.958 1.9508C242.088 5.89349 251.599 15.407 255.54 27.5414C257.49 33.5453 257.489 40.9641 257.489 55.8016V470.327C257.489 485.165 257.49 492.584 255.54 498.588C251.599 510.722 242.088 520.235 229.958 524.178C223.956 526.129 216.541 526.129 201.708 526.129H57.6563C42.8241 526.129 35.408 526.129 29.4061 524.178C17.2761 520.235 7.76591 510.722 3.82462 498.588C1.87451 492.584 1.87451 485.165 1.87451 470.327V55.8016Z" fill="#213744"/>
<path fill-rule="evenodd" clip-rule="evenodd" d="M201.954 1.22624H57.4114C42.7596 1.22624 35.5791 1.2338 29.7853 3.11701C18.0284 6.9384 8.81089 16.1592 4.99089 27.9202C3.10835 33.7162 3.10078 40.8992 3.10078 55.5561V470.573C3.10078 485.23 3.10835 492.413 4.99089 498.209C8.81089 509.969 18.0284 519.19 29.7853 523.012C35.5791 524.895 42.7597 524.903 57.4114 524.903H201.954C216.605 524.903 223.786 524.895 229.58 523.012C241.336 519.19 250.554 509.969 254.374 498.209C256.256 492.413 256.264 485.23 256.264 470.573V55.5562C256.264 40.8992 256.256 33.7162 254.374 27.9202C250.554 16.1592 241.336 6.9384 229.58 3.11701C223.786 1.2338 216.605 1.22624 201.954 1.22624ZM4.4079 27.7307C2.48779 33.6423 2.48779 40.9469 2.48779 55.5561V470.573C2.48779 485.182 2.48779 492.487 4.4079 498.398C8.28858 510.345 17.6524 519.713 29.5958 523.595C35.5053 525.516 42.8073 525.515 57.4114 525.515H201.954C216.558 525.515 223.86 525.516 229.769 523.595C241.712 519.713 251.076 510.345 254.957 498.398C256.877 492.487 256.877 485.182 256.877 470.573V55.5562C256.877 40.9469 256.877 33.6423 254.957 27.7307C251.076 15.783 241.712 6.41587 229.769 2.53383C223.86 0.613037 216.558 0.613037 201.954 0.613037H57.4114C42.8073 0.613037 35.5053 0.613037 29.5958 2.53383C17.6524 6.41587 8.28858 15.783 4.4079 27.7307Z" fill="#8EADC1"/>
<path d="M4.93945 54.5753C4.93945 40.8792 4.93945 34.0311 6.73956 28.489C10.3776 17.288 19.1563 8.50636 30.3533 4.8669C35.8934 3.06616 42.7391 3.06616 56.4303 3.06616H202.934C216.625 3.06616 223.471 3.06616 229.011 4.8669C240.208 8.50636 248.987 17.288 252.625 28.489C254.425 34.0311 254.425 40.8792 254.425 54.5753V471.554C254.425 485.25 254.425 492.099 252.625 497.64C248.987 508.841 240.208 517.623 229.011 521.262C223.471 523.063 216.625 523.063 202.934 523.063H56.4303C42.7391 523.063 35.8934 523.063 30.3533 521.262C19.1563 517.623 10.3776 508.841 6.73956 497.64C4.93945 492.099 4.93945 485.25 4.93945 471.554V54.5753Z" fill="#121515"/>
<path d="M206.612 0H202.934V3.06602H206.612V0Z" fill="#36454C"/>
<path d="M257.49 52.7356H254.425V56.4148H257.49V52.7356Z" fill="#36454C"/>
<path d="M4.93945 52.7356H1.87451V56.4148H4.93945V52.7356Z" fill="#36454C"/>
<path d="M4.93945 469.714H1.87451V473.394H4.93945V469.714Z" fill="#36454C"/>
<path d="M257.49 469.714H254.425V473.394H257.49V469.714Z" fill="#36454C"/>
<path d="M56.4309 523.063H52.7529V526.129H56.4309V523.063Z" fill="#36454C"/>
<path fill-rule="evenodd" clip-rule="evenodd" d="M155.735 24.5284C158.443 24.5284 160.639 22.332 160.639 19.6227C160.639 16.9134 158.443 14.717 155.735 14.717C153.026 14.717 150.831 16.9134 150.831 19.6227C150.831 22.332 153.026 24.5284 155.735 24.5284Z" fill="#262C2D"/>
<path fill-rule="evenodd" clip-rule="evenodd" d="M155.735 22.6887C157.427 22.6887 158.799 21.316 158.799 19.6227C158.799 17.9294 157.427 16.5566 155.735 16.5566C154.042 16.5566 152.669 17.9294 152.669 19.6227C152.669 21.316 154.042 22.6887 155.735 22.6887Z" fill="#121515"/>
<path opacity="0.4" fill-rule="evenodd" clip-rule="evenodd" d="M155.735 19.0096C156.073 19.0096 156.347 18.7351 156.347 18.3964C156.347 18.0577 156.073 17.7832 155.735 17.7832C155.396 17.7832 155.121 18.0577 155.121 18.3964C155.121 18.7351 155.396 19.0096 155.735 19.0096Z" fill="#636F73"/>
<path fill-rule="evenodd" clip-rule="evenodd" d="M114.664 19.6226C114.664 18.6066 115.488 17.783 116.503 17.783H142.862C143.877 17.783 144.7 18.6066 144.7 19.6226C144.7 20.6385 143.877 21.4622 142.862 21.4622H116.503C115.488 21.4622 114.664 20.6385 114.664 19.6226Z" fill="#262C2D"/>
</g>
</g>
<defs>
<clipPath id="clip0_2484_642">
<rect width="260.104" height="526.876" fill="white"/>
</clipPath>
</defs>
</svg>
